<?xml version="1.0" encoding="utf-8"?>
<!-- Generator: Adobe Illustrator 18.1.1, SVG Export Plug-In . SVG Version: 6.00 Build 0)  -->
<!DOCTYPE svg PUBLIC "-//W3C//DTD SVG 1.1//EN" "http://www.w3.org/Graphics/SVG/1.1/DTD/svg11.dtd">
<svg version="1.1" xmlns="http://www.w3.org/2000/svg" xmlns:xlink="http://www.w3.org/1999/xlink" x="0px" y="0px"
	 viewBox="0 0 200 60" enable-background="new 0 0 200 60" xml:space="preserve">
<g id="Layer_1">
	<path fill="#F26E65" d="M29.5,26.4l11.8-5.6c0,0,4,6.3,0.3,13.9c0,0-3.1,7.2-12.1,8.2L29.5,26.4z"/>
	<path fill="#F26E65" d="M27,26.4l-11.8-5.6c0,0-4,6.3-0.3,13.9c0,0,3.1,7.2,12.1,8.2L27,26.4z"/>
	<path fill="#2C3141" d="M28.3,24.3l11.6-5.5c0,0-3.9-5.5-11.6-5.6c0,0-6.9-0.3-11.6,5.5L28.3,24.3z"/>
	<path fill="#2C3141" d="M31.7,14c0,0,1.8-5.1,4.6-7c0,0,2.2-1.4,0.9-2.2c0,0-1.1-0.9-2.4,1.1c0,0-3,4.9-4,8S31.7,14,31.7,14z"/>
	<path fill="#2C3141" d="M24.5,14c0,0-1.8-5.1-4.6-7c0,0-2.2-1.4-0.9-2.2c0,0,1.1-0.9,2.4,1.1c0,0,3,4.9,4,8S24.5,14,24.5,14z"/>
	<circle fill="#2C3141" cx="21.9" cy="37.3" r="1"/>
	<circle fill="#2C3141" cx="21.9" cy="27.9" r="1"/>
	<circle fill="#2C3141" cx="19.2" cy="32.4" r="1.7"/>
	<circle fill="#2C3141" cx="23.4" cy="32.4" r="0.5"/>
	<circle fill="#2C3141" cx="34.6" cy="27.9" r="1"/>
	<circle fill="#2C3141" cx="34.6" cy="37.3" r="1"/>
	<circle fill="#2C3141" cx="37.4" cy="32.8" r="1.7"/>
	<circle fill="#2C3141" cx="33.1" cy="32.8" r="0.5"/>
	<path fill="#9AD4E9" d="M26.3,11c0,0-1.3-3.2-2.1-4.2c0,0,4-0.7,8-0.1c0,0-1.6,2.6-2.1,4.3C30.1,10.9,28.1,10.7,26.3,11z"/>
	<path fill="#9AD4E9" d="M28.3,54.5c0,0-14.9-2.9-20.8-19.9c0,0-6.8-19.1,11.5-26.5c0,0,1.8,2,2.6,4.1c0,0-5.4,1.9-8.4,7.7
		c0,0-1.8,2.9-2,7.4c0,0-0.4,5.3,2.6,10c0,0,3.2,5.6,9.8,7.4c0,0,1.9,0.6,4.7,0.6h0c2.8,0,4.7-0.6,4.7-0.6c6.6-1.7,9.8-7.4,9.8-7.4
		c3-4.7,2.6-10,2.6-10c-0.2-4.4-2-7.4-2-7.4c-3-5.8-8.4-7.7-8.4-7.7c0.9-2.2,2.6-4.1,2.6-4.1c18.3,7.4,11.5,26.5,11.5,26.5
		C43.2,51.5,28.3,54.5,28.3,54.5C28.3,54.5,28.3,54.5,28.3,54.5z"/>
</g>
<g id="name">
	<g>
		<path fill="#2C3141" d="M66.1,38.3"/>
		<path fill="#2C3141" d="M56.4,31.6c0,0,0.6-6.3,0.4-7.8c0,0-0.2-2.6-1.9-3.8c0,0-0.5-0.4,0-1c0,0,0.1-0.2,0.4-0.2l6-0.6
			c0,0,0.6,0,0.7,0.5c0,0,0.3,2,0.2,4.6c0,0-0.2,3.8-0.9,10.1L61,36.6c0,0-0.2,1.4,0.5,1.6c0,0,1,0.5,2.1-0.5c0,0,5.9-4.5,6-14.2
			c0,0-0.4-4.7,1.3-5.1c0,0,2.7-0.6,2,5.1c0,0-0.6,4.9-2.9,9.1c0,0-6.3,10.9-10.9,10c0,0-3.2-0.4-3.2-3.8
			C55.9,38.9,56.3,32.4,56.4,31.6z"/>
		<path fill="#2C3141" d="M139.8,25.6H136c-0.4,0-0.6,0.4-0.6,0.4L133.1,37c-0.2,0.9-0.5,1.7-0.5,1.7c-0.6,1.2-2.3,0.8-2.3,0.8
			c-0.6-0.2-0.6-1-0.6-1c0-0.5,0.1-1.5,0.1-1.5l2.3-10.7c0.2-0.7-0.6-0.7-0.6-0.7l-3.6,0c-0.5,0-0.7,0.7-0.7,0.7l-1.8,7.7
			c-0.5,2-1.8,3.7-1.8,3.7c-1.7,2.3-2.9,1.7-2.9,1.7c-0.9-0.3-0.6-1.8-0.6-1.8c0.1-1.1,0.7-3.5,0.7-3.5l1.6-7.7
			c0.2-0.8-0.6-0.7-0.6-0.7c-1.7-0.1-4.4,0.5-4.4,0.5c-0.3,0.1-0.5,0-0.5,0c-0.5-0.4-1.3-0.6-1.3-0.6c-7.1-1-9.6,8.2-9.6,8.2
			c-2.3,6-7.1,5.7-7.1,5.7c-2-0.1-2.1-2.1-2.1-2.1C96,31.6,99,28,99,28c1-1.4,2-1,2-1c0.9,0.4,0.5,1.6,0.5,1.6
			c-0.1,0.5-0.4,1.3-0.4,1.3c-0.1,0.5,0.3,0.7,0.3,0.7c1.3,0.6,2.1-0.6,2.1-0.6c1.1-1.8-0.1-3.4-0.1-3.4c-1.1-1.9-4.5-1.3-4.5-1.3
			c-6.6,1-7.6,9.6-7.6,9.6c-1.3,5.1-4.8,4.4-4.8,4.4c-1.2-0.4-0.8-1.8-0.8-1.8L88,26.4c0.1-0.7-0.6-0.7-0.6-0.7
			c-2.4,0-4.3,0.5-4.3,0.5c-0.4,0.2-0.7-0.1-0.7-0.1c-0.3-0.2-0.6-0.3-0.6-0.3c-1.9-0.7-4.2,0.2-4.2,0.2c-4.3,1.8-5.8,8.2-5.8,8.2
			c-1.1,5.4,0.9,7.2,0.9,7.2c3.8,3.3,7.6-0.7,7.6-0.7c0.6-0.6,1,0.1,1,0.1c0.4,0.9,1.1,1.4,1.1,1.4c2.8,2,8.6-2,8.6-2
			c0.5-0.4,0.8,0.2,0.8,0.2c1,1.6,2.4,2,2.4,2c5,1.6,10.4-3,10.4-3c0.9-0.5,1.2,0.4,1.2,0.4c0.6,1.6,2.2,2.4,2.2,2.4
			c4,1.9,6.7-1.6,6.7-1.6c0.7-0.7,1,0.2,1,0.2c0.8,1.6,2,1.8,2,1.8c3,0.7,6.1-2.2,6.1-2.2c1-0.8,1.4,0.3,1.4,0.3
			c0.7,1.6,2,1.8,2,1.8c1.4,0.4,5.2-1,5.2-1c-0.5,0.7-3.7,1.9-3.7,1.9c-2.4,1-2.4,3.5-2.4,3.5c-0.1,3.7,3.4,3.2,3.4,3.2
			c1.1-0.1,2.2,0.1,2.2,0.1c3.4,0.3,4.3-4.7,4.3-4.7l1.2-5.7l2.8-13.4C140.4,25.6,139.8,25.6,139.8,25.6z M82.6,29.1
			c-0.5,2.7-1,4.5-1.6,7.2c0,0-0.1,0.4-0.2,0.9c-0.4,1.7-1.9,2.4-2.9,2.2c-0.9-0.2-1.4-1.3-1.2-3.1c0.2-2.6,0.8-5.1,2.4-7.2
			c0.4-0.6,0.9-1,1.5-1.3C81.5,27.4,82.8,28,82.6,29.1z M116.9,29.2c-0.5,2.6-1.1,5.1-1.7,7.7c-0.1,0.4-0.3,0.8-0.5,1.2
			c-0.6,0.9-1.5,1.5-2.7,1.4c-1.6-0.1-1.4-2.6-1.4-2.6c0.2-2.8,1-5.4,2.7-7.7c0.4-0.6,1-1.1,1.7-1.4C116.1,27.2,117.1,28,116.9,29.2
			z M131.7,44.4c-0.3,0.9-0.5,1.8-0.9,2.6c-0.4,0.8-1.4,2.2-2.3,1.6c-0.9-0.6-1-1.9-0.6-2.6c0.6-0.9,2-1.8,3.1-2.2
			C131.5,43.5,131.8,43.9,131.7,44.4z"/>
		<path fill="#2C3141" d="M153.8,30.4c-0.5-0.2-0.5-0.6-0.5-0.6c0-0.6,0.4-0.8,0.4-0.8c0.4-0.2,1.2-0.8,1.2-0.8
			c3.1-2.2,2.2-6.1,2.2-6.1c-0.8-3.1-4.9-3.6-4.9-3.6c-3.9-0.6-10,0.6-10,0.6c-0.5,0.1-0.6,0.5-0.6,0.5c-0.2,0.6,0.3,1,0.3,1
			C143.4,22,143,24,143,24l-0.7,3.6l-2.5,12.2c-0.4,1.8,0.1,2.1,0.1,2.1c0.8,0.4,5.6,0.7,5.6,0.7c4.1,0.4,6.5-0.3,6.5-0.3
			c6.2-1.9,5.1-7.8,5.1-7.8C156.6,31.4,153.8,30.4,153.8,30.4z M147.8,40.4c-0.2,0-0.5,0-0.7,0c-2.2-0.1-2.3-0.4-1.9-2.5
			c0.4-2,0.9-4.1,1.3-6.1c0.1-0.6,0.3-0.8,0.9-0.9c2.7-0.5,4.4,1,4.4,4.1C151.8,38,150.2,40.1,147.8,40.4z M151.3,26.6
			c-0.7,1.2-1.7,1.9-3.1,2c-0.5,0-0.9-0.4-0.8-0.9c0.4-2.1,0.8-4.2,1.2-6.3c0.2-0.9,1.8-1.2,2.7-0.5c0.1,0.1,0.3,0.3,0.4,0.4
			C152.6,22.9,152.3,24.9,151.3,26.6z"/>
		<path fill="#2C3141" d="M192.8,25.6c-2,0.1-4,0.5-4,0.5c-0.3,0.1-0.5-0.1-0.5-0.1c-0.9-0.8-2.4-0.6-2.4-0.6
			c-7.5,0.3-8.4,10-8.4,10c-0.7,4.1-4.4,4-4.4,4c-1.2-0.1-0.9-1.9-0.9-1.9l2.3-11.2c0.1-0.6-0.5-0.6-0.5-0.6l-3.5,0
			c-0.8,0-0.9,0.9-0.9,0.9l-1,4.8c-0.3,1.4-1.3,5.5-1.3,5.5c-0.3,1-1.1,1.8-1.1,1.8c-0.8,0.8-1.8,0.5-1.8,0.5
			c-0.6-0.2-0.5-1.3-0.5-1.3c0-0.5,0.4-2.4,0.4-2.4l1.9-9.3c0.1-0.6-0.5-0.6-0.5-0.6l-3.4,0c-0.5,0-0.7,0.1-0.7,0.1
			c-0.3,0.2-0.4,0.8-0.4,0.8L159,37.9c-0.2,1-0.1,2.1-0.1,2.1c0.2,1.9,2.6,2.5,2.6,2.5c3.2,0.8,5.2-2,5.2-2c0.6-0.7,0.9,0.1,0.9,0.1
			c0.6,1.4,2.1,1.8,2.1,1.8c3.1,0.9,6.4-1.6,6.4-1.6c1.4-1,2-0.1,2-0.1c2.8,4.1,7.7,0.7,7.7,0.7c-0.3,0.8-1.9,1.4-1.9,1.4
			c-1.8,0.7-2.5,1.1-2.5,1.1c-2.6,1.8-1.4,4.6-1.4,4.6c0.8,2.2,2.5,1.7,2.5,1.7c1.5-0.2,2.4,0,2.4,0c3.8,0.7,4.8-4.3,4.8-4.3l0.5-2
			l3.6-17.7C193.8,25.5,192.8,25.6,192.8,25.6z M185.1,44.3c-0.3,0.9-0.5,1.8-0.9,2.6c-0.4,0.8-1.4,2.2-2.3,1.6
			c-0.9-0.6-1-1.9-0.6-2.6c0.6-0.9,2-1.8,3.1-2.2C184.8,43.4,185.2,43.8,185.1,44.3z M188,30.6c-0.4,2.1-0.9,4.1-1.3,6.2
			c-0.1,0.4-0.3,0.7-0.5,1.1c-0.7,1.1-1.8,1.7-2.7,1.4c-1.2-0.4-1.2-1.5-1.2-1.9c0,0,0-0.5,0-0.5c0.2-2.9,0.8-5.4,2.4-7.7
			c0,0,0,0,0,0C185.9,27.5,188.4,28.6,188,30.6z"/>
	</g>
</g>
</svg>
