<?xml version="1.0" encoding="utf-8"?>
<!-- Generator: Adobe Illustrator 18.1.1, SVG Export Plug-In . SVG Version: 6.00 Build 0)  -->
<!DOCTYPE svg PUBLIC "-//W3C//DTD SVG 1.1//EN" "http://www.w3.org/Graphics/SVG/1.1/DTD/svg11.dtd">
<svg version="1.1" id="Layer_1" xmlns="http://www.w3.org/2000/svg" xmlns:xlink="http://www.w3.org/1999/xlink" x="0px" y="0px"
	 viewBox="11.3 478.9 617.3 178.2" enable-background="new 11.3 478.9 617.3 178.2" xml:space="preserve">
<g id="Layer_1_1_">
	<path fill="#F26E65" d="M94.4,556.5l37.8-17.9c0,0,12.8,20.2,1,44.5c0,0-9.9,23-38.7,26.2L94.4,556.5z"/>
	<path fill="#F26E65" d="M86.4,556.5l-37.8-17.9c0,0-12.8,20.2-1,44.5c0,0,9.9,23,38.7,26.2L86.4,556.5L86.4,556.5z"/>
	<path fill="#2C3141" d="M90.6,549.8l37.1-17.6c0,0-12.5-17.6-37.1-17.9c0,0-22.1-1-37.1,17.6L90.6,549.8z"/>
	<path fill="#2C3141" d="M101.4,516.8c0,0,5.8-16.3,14.7-22.4c0,0,7-4.5,2.9-7c0,0-3.5-2.9-7.7,3.5c0,0-9.6,15.7-12.8,25.6
		C95.4,526.4,101.4,516.8,101.4,516.8z"/>
	<path fill="#2C3141" d="M78.4,516.8c0,0-5.8-16.3-14.7-22.4c0,0-7-4.5-2.9-7c0,0,3.5-2.9,7.7,3.5c0,0,9.6,15.7,12.8,25.6
		C84.5,526.4,78.4,516.8,78.4,516.8z"/>
	<circle fill="#2C3141" cx="70.1" cy="591.4" r="3.2"/>
	<circle fill="#2C3141" cx="70.1" cy="561.3" r="3.2"/>
	<circle fill="#2C3141" cx="61.4" cy="575.7" r="5.4"/>
	<circle fill="#2C3141" cx="74.9" cy="575.7" r="1.6"/>
	<circle fill="#2C3141" cx="110.7" cy="561.3" r="3.2"/>
	<circle fill="#2C3141" cx="110.7" cy="591.4" r="3.2"/>
	<circle fill="#2C3141" cx="119.7" cy="577" r="5.4"/>
	<circle fill="#2C3141" cx="105.9" cy="577" r="1.6"/>
	<path fill="#9AD4E9" d="M84.2,507.2c0,0-4.2-10.2-6.7-13.4c0,0,12.8-2.2,25.6-0.3c0,0-5.1,8.3-6.7,13.8
		C96.3,506.9,89.9,506.2,84.2,507.2z"/>
	<path fill="#9AD4E9" d="M90.6,646.4c0,0-47.7-9.3-66.6-63.7c0,0-21.8-61.1,36.8-84.8c0,0,5.8,6.4,8.3,13.1c0,0-17.3,6.1-26.9,24.6
		c0,0-5.8,9.3-6.4,23.7c0,0-1.3,17,8.3,32c0,0,10.2,17.9,31.4,23.7c0,0,6.1,1.9,15,1.9l0,0c9,0,15-1.9,15-1.9
		c21.1-5.4,31.4-23.7,31.4-23.7c9.6-15,8.3-32,8.3-32c-0.6-14.1-6.4-23.7-6.4-23.7C129.3,517.1,112,511,112,511
		c2.9-7,8.3-13.1,8.3-13.1c58.6,23.7,36.8,84.8,36.8,84.8C138.2,636.8,90.6,646.4,90.6,646.4L90.6,646.4z"/>
</g>
<g id="name">
	<g>
		<path fill="#203141" d="M211.5,562.6"/>
		<path fill="#203141" d="M180.5,541.1c0,0,1.9-20.2,1.3-25c0,0-0.6-8.3-6.1-12.2c0,0-1.6-1.3,0-3.2c0,0,0.3-0.6,1.3-0.6l19.2-1.9
			c0,0,1.9,0,2.2,1.6c0,0,1,6.4,0.6,14.7c0,0-0.6,12.2-2.9,32.3l-1,10.2c0,0-0.6,4.5,1.6,5.1c0,0,3.2,1.6,6.7-1.6
			c0,0,18.9-14.4,19.2-45.4c0,0-1.3-15,4.2-16.3c0,0,8.6-1.9,6.4,16.3c0,0-1.9,15.7-9.3,29.1c0,0-20.2,34.9-34.9,32
			c0,0-10.2-1.3-10.2-12.2C179.2,564.5,180.2,543.7,180.5,541.1z"/>
		<path fill="#203141" d="M447.4,521.9h-11.8c-1.3,0-1.9,1.3-1.9,1.3l-7.7,35.2c-0.6,2.9-1.6,5.4-1.6,5.4c-1.9,3.8-7.4,2.6-7.4,2.6
			c-1.9-0.6-1.9-3.2-1.9-3.2c0-1.6,0.3-4.8,0.3-4.8l7.4-34.2c0.6-2.2-1.9-2.2-1.9-2.2h-11.5c-1.6,0-2.2,2.2-2.2,2.2l-5.8,24.6
			c-1.6,6.4-5.8,11.8-5.8,11.8c-5.4,7.4-9.3,5.4-9.3,5.4c-2.9-1-1.9-5.8-1.9-5.8c0.3-3.5,2.2-11.2,2.2-11.2l5.1-24.6
			c0.6-2.6-1.9-2.2-1.9-2.2c-5.4-0.3-14.1,1.6-14.1,1.6c-1,0.3-1.6,0-1.6,0c-1.6-1.3-4.2-1.9-4.2-1.9c-22.7-3.2-30.7,26.2-30.7,26.2
			c-7.4,19.2-22.7,18.2-22.7,18.2c-6.4-0.3-6.7-6.7-6.7-6.7c-2.2-18.6,7.4-30.1,7.4-30.1c3.2-4.5,6.4-3.2,6.4-3.2
			c2.9,1.3,1.6,5.1,1.6,5.1c-0.3,1.6-1.3,4.2-1.3,4.2c-0.3,1.6,1,2.2,1,2.2c4.2,1.9,6.7-1.9,6.7-1.9c3.5-5.8-0.3-10.9-0.3-10.9
			c-3.5-6.1-14.4-4.2-14.4-4.2c-21.1,3.2-24.3,30.7-24.3,30.7c-4.2,16.3-15.4,14.1-15.4,14.1c-3.8-1.3-2.6-5.8-2.6-5.8L282,524
			c0.3-2.2-1.9-2.2-1.9-2.2c-7.7,0-13.8,1.6-13.8,1.6c-1.3,0.6-2.2-0.3-2.2-0.3c-1-0.6-1.9-1-1.9-1c-6.1-2.2-13.4,0.6-13.4,0.6
			c-13.8,5.8-18.2,25.9-18.2,25.9c-3.5,17.3,2.9,23,2.9,23c12.2,10.6,24.3-2.2,24.3-2.2c1.9-1.9,3.2,0.3,3.2,0.3
			c1.3,2.9,3.5,4.5,3.5,4.5c9,6.4,27.5-6.4,27.5-6.4c1.6-1.3,2.6,0.6,2.6,0.6c3.2,5.1,7.7,6.4,7.7,6.4c16,5.1,33.3-9.6,33.3-9.6
			c2.9-1.6,3.8,1.3,3.8,1.3c1.9,5.1,7,7.7,7,7.7c12.8,6.1,21.4-5.1,21.4-5.1c2.2-2.2,3.2,0.6,3.2,0.6c2.6,5.1,6.4,5.8,6.4,5.8
			c9.6,2.2,19.5-7,19.5-7c3.2-2.6,4.5,1,4.5,1c2.2,5.1,6.4,5.8,6.4,5.8c4.5,1.3,16.6-3.2,16.6-3.2c-1.6,2.2-11.8,6.1-11.8,6.1
			c-7.7,3.2-7.7,11.2-7.7,11.2c-0.3,11.8,10.9,10.2,10.9,10.2c3.5-0.3,7,0.3,7,0.3c10.9,1,13.8-15,13.8-15l3.8-18.2l9-42.9
			C449.6,521.9,447.4,521.9,447.4,521.9z M264.3,533.1c-1.6,8.6-3.2,14.4-5.1,23c0,0-0.3,1.3-0.6,2.9c-1.3,5.4-6.1,7.7-9.3,7
			c-2.9-0.6-4.5-4.2-3.8-9.9c0.6-8.3,2.6-16.3,7.7-23c1.3-1.9,2.9-3.2,4.8-4.2C261.1,527.7,265,529.6,264.3,533.1z M374.1,533.4
			c-1.6,8.3-3.5,16.3-5.4,24.6c-0.3,1.3-1,2.6-1.6,3.8c-1.9,2.9-4.8,4.8-8.6,4.5c-5.1-0.3-4.5-8.3-4.5-8.3c0.6-9,3.2-17.3,8.6-24.6
			c1.3-1.9,3.2-3.5,5.4-4.5C371.5,527,374.7,529.6,374.1,533.4z M421.4,582.1c-1,2.9-1.6,5.8-2.9,8.3c-1.3,2.6-4.5,7-7.4,5.1
			s-3.2-6.1-1.9-8.3c1.9-2.9,6.4-5.8,9.9-7C420.8,579.2,421.8,580.5,421.4,582.1z"/>
		<path fill="#203141" d="M492.5,537.3c-1.6-0.6-1.6-1.9-1.6-1.9c0-1.9,1.3-2.6,1.3-2.6c1.3-0.6,3.8-2.6,3.8-2.6
			c9.9-7,7-19.5,7-19.5c-2.6-9.9-15.7-11.5-15.7-11.5c-12.5-1.9-32,1.9-32,1.9c-1.6,0.3-1.9,1.6-1.9,1.6c-0.6,1.9,1,3.2,1,3.2
			c4.8,4.5,3.2,10.9,3.2,10.9l-2.2,11.5l-8,39c-1.3,5.8,0.3,6.7,0.3,6.7c2.6,1.3,17.9,2.2,17.9,2.2c13.1,1.3,20.8-1,20.8-1
			c19.8-6.1,16.3-25,16.3-25C501.1,540.5,492.5,537.3,492.5,537.3z M473,569.3c-0.6,0-1.6,0-2.2,0c-7-0.3-7.4-1.3-6.1-8
			c1.3-6.4,2.9-13.1,4.2-19.5c0.3-1.9,1-2.6,2.9-2.9c8.6-1.6,14.1,3.2,14.1,13.1C485.8,561.6,481,568.3,473,569.3z M484.5,525.1
			c-2.2,3.8-5.4,6.1-9.9,6.4c-1.6,0-2.9-1.3-2.6-2.9c1.3-6.7,2.6-13.4,3.8-20.2c0.6-2.9,5.8-3.8,8.6-1.6c0.3,0.3,1,1,1.3,1.3
			C488.3,513.3,487.4,519.7,484.5,525.1z"/>
		<path fill="#203141" d="M617,521.9c-6.4,0.3-12.8,1.6-12.8,1.6c-1,0.3-1.6-0.3-1.6-0.3c-2.9-2.6-7.7-1.9-7.7-1.9
			c-24,1-26.9,32-26.9,32c-2.2,13.1-14.1,12.8-14.1,12.8c-3.8-0.3-2.9-6.1-2.9-6.1l7.4-35.8c0.3-1.9-1.6-1.9-1.6-1.9h-11.2
			c-2.6,0-2.9,2.9-2.9,2.9l-3.2,15.4c-1,4.5-4.2,17.6-4.2,17.6c-1,3.2-3.5,5.8-3.5,5.8c-2.6,2.6-5.8,1.6-5.8,1.6
			c-1.9-0.6-1.6-4.2-1.6-4.2c0-1.6,1.3-7.7,1.3-7.7l6.1-29.8c0.3-1.9-1.6-1.9-1.6-1.9h-10.9c-1.6,0-2.2,0.3-2.2,0.3
			c-1,0.6-1.3,2.6-1.3,2.6l-6.7,36.5c-0.6,3.2-0.3,6.7-0.3,6.7c0.6,6.1,8.3,8,8.3,8c10.2,2.6,16.6-6.4,16.6-6.4
			c1.9-2.2,2.9,0.3,2.9,0.3c1.9,4.5,6.7,5.8,6.7,5.8c9.9,2.9,20.5-5.1,20.5-5.1c4.5-3.2,6.4-0.3,6.4-0.3c9,13.1,24.6,2.2,24.6,2.2
			c-1,2.6-6.1,4.5-6.1,4.5c-5.8,2.2-8,3.5-8,3.5c-8.3,5.8-4.5,14.7-4.5,14.7c2.6,7,8,5.4,8,5.4c4.8-0.6,7.7,0,7.7,0
			c12.2,2.2,15.4-13.8,15.4-13.8l1.6-6.4l11.5-56.6C620.5,521.6,617,521.9,617,521.9z M592.3,581.8c-1,2.9-1.6,5.8-2.9,8.3
			s-4.5,7-7.4,5.1s-3.2-6.1-1.9-8.3c1.9-2.9,6.4-5.8,9.9-7C591.7,578.9,593,580.2,592.3,581.8z M601.6,537.9
			c-1.3,6.7-2.9,13.1-4.2,19.8c-0.3,1.3-1,2.2-1.6,3.5c-2.2,3.5-5.8,5.4-8.6,4.5c-3.8-1.3-3.8-4.8-3.8-6.1V558
			c0.6-9.3,2.6-17.3,7.7-24.6l0,0C594.9,528,602.9,531.5,601.6,537.9z"/>
	</g>
	<g enable-background="new    ">
		<path fill="#BBBCBC" d="M475.2,631.5c-1.4,0.9-2.9,1.6-4.4,2s-3.4,0.6-5.7,0.6h-12l7.5-32.6h9.4c2.4,0,4.1,0.1,5.3,0.2
			c1.2,0.2,2.2,0.5,3.2,1.1c0.8,0.5,1.4,1.1,1.8,1.9c0.4,0.8,0.6,1.6,0.6,2.5c0,1.9-0.5,3.5-1.6,5c-1.1,1.4-2.5,2.6-4.4,3.3v0.2
			c1.7,0.4,3.1,1.1,4,2.2c0.9,1.1,1.4,2.5,1.4,4.2c0,1.9-0.5,3.6-1.4,5.3C477.9,629.1,476.7,630.5,475.2,631.5z M475.6,622.5
			c0-0.8-0.1-1.5-0.4-2s-0.8-1-1.5-1.4c-0.6-0.4-1.3-0.6-2.2-0.7c-0.9-0.1-2.2-0.2-3.8-0.2h-6.6l-2.8,12.3h6c1.9,0,3.5-0.1,4.7-0.3
			s2.3-0.6,3.2-1.1c1.1-0.7,2-1.6,2.6-2.8S475.6,623.8,475.6,622.5z M476.1,608.6c0-0.6-0.1-1.1-0.3-1.5c-0.2-0.4-0.5-0.7-0.9-1
			c-0.6-0.4-1.4-0.7-2.3-0.8s-2.1-0.2-3.6-0.2h-4.9l-2.2,9.6h5.7c1.3,0,2.3-0.1,3.3-0.3c0.9-0.2,1.7-0.5,2.4-0.9
			c0.9-0.5,1.6-1.3,2.1-2.2S476.1,609.5,476.1,608.6z"/>
		<path fill="#BBBCBC" d="M495,634.7c-3.4,0-6-0.8-8-2.4s-2.9-3.9-2.9-7c0-4.5,1.4-8.3,4.2-11.5s6.3-4.8,10.5-4.8
			c2.8,0,4.9,0.7,6.4,2.1c1.5,1.4,2.2,3.3,2.2,5.8c0,0.4-0.1,1.1-0.2,2.1s-0.3,2-0.6,3.3h-18c-0.1,0.4-0.1,0.8-0.2,1.2
			c0,0.4-0.1,0.8-0.1,1.1c0,2.1,0.6,3.7,1.9,4.8c1.3,1.2,3,1.8,5.3,1.8c1.6,0,3.3-0.3,5-0.9c1.7-0.6,3.1-1.3,4.3-2.1h0.2l-0.9,4.4
			c-0.7,0.3-1.4,0.5-2,0.7s-1.3,0.4-2.2,0.7s-1.7,0.4-2.4,0.5C496.9,634.6,496.1,634.7,495,634.7z M503.2,619.2
			c0.1-0.4,0.1-0.8,0.2-1.1c0-0.3,0-0.6,0-1c0-1.6-0.4-2.8-1.3-3.7s-2.2-1.3-4.1-1.3c-2.1,0-3.9,0.6-5.5,1.9c-1.6,1.3-2.7,3-3.3,5.1
			L503.2,619.2L503.2,619.2z"/>
		<path fill="#BBBCBC" d="M528.5,609.7l-0.7,3.3h-8.5l-2.6,11.3c-0.1,0.6-0.3,1.2-0.4,2c-0.1,0.7-0.2,1.3-0.2,1.8
			c0,1.1,0.3,1.9,0.8,2.4s1.5,0.8,3,0.8c0.6,0,1.3-0.1,2.1-0.3s1.4-0.4,1.7-0.5h0.2l-0.8,3.5c-0.8,0.2-1.7,0.4-2.6,0.5
			c-0.9,0.1-1.7,0.2-2.5,0.2c-2,0-3.6-0.4-4.7-1.3c-1.1-0.9-1.7-2.3-1.7-4.2c0-0.5,0-0.9,0.1-1.4s0.2-1,0.3-1.6l3-13.1h-2.8l0.7-3.3
			h2.8l1.6-7h4.1l-1.6,7h8.7V609.7z"/>
		<path fill="#BBBCBC" d="M543.3,631.5c-0.4,0.2-0.9,0.6-1.6,1c-0.7,0.4-1.4,0.8-2.1,1.1c-0.7,0.3-1.6,0.6-2.5,0.8s-2,0.3-3.2,0.3
			c-1.9,0-3.5-0.6-4.7-1.7c-1.2-1.1-1.8-2.6-1.8-4.4c0-1.9,0.4-3.6,1.3-4.9c0.9-1.3,2.1-2.4,3.8-3.3c1.6-0.8,3.6-1.4,6-1.8
			s5-0.6,8-0.7c0.1-0.4,0.2-0.8,0.2-1.1c0.1-0.3,0.1-0.6,0.1-0.9c0-0.7-0.1-1.3-0.4-1.7s-0.7-0.8-1.2-1.1s-1.1-0.4-1.8-0.5
			s-1.4-0.1-2.2-0.1c-1.2,0-2.7,0.2-4.2,0.6c-1.6,0.4-2.9,0.8-3.9,1.2h-0.2l0.8-4.1c0.8-0.2,2-0.5,3.7-0.7c1.6-0.3,3.1-0.4,4.6-0.4
			c3,0,5.3,0.5,6.8,1.4s2.3,2.5,2.3,4.5c0,0.4,0,0.8-0.1,1.3c-0.1,0.4-0.1,0.9-0.2,1.3l-3.8,16.6h-4.1L543.3,631.5z M545.7,621.2
			c-2.2,0.1-4.2,0.3-6,0.5s-3.2,0.6-4.3,1.1c-1.2,0.5-2.1,1.1-2.7,2c-0.6,0.8-0.9,1.8-0.9,3.1c0,1,0.4,1.9,1.1,2.4
			c0.7,0.6,1.8,0.8,3.3,0.8c1.3,0,2.7-0.3,4.1-0.9c1.4-0.6,2.7-1.3,3.9-2.1L545.7,621.2z"/>
	</g>
</g>
</svg>
