<?xml version="1.0" encoding="utf-8"?>
<!-- Generator: Adobe Illustrator 18.1.1, SVG Export Plug-In . SVG Version: 6.00 Build 0)  -->
<!DOCTYPE svg PUBLIC "-//W3C//DTD SVG 1.1//EN" "http://www.w3.org/Graphics/SVG/1.1/DTD/svg11.dtd">
<svg version="1.1" id="Layer_1" xmlns="http://www.w3.org/2000/svg" xmlns:xlink="http://www.w3.org/1999/xlink" x="0px" y="0px"
	 viewBox="0 950.8 773.5 185.2" enable-background="new 0 950.8 773.5 185.2" xml:space="preserve">
<g id="background">
</g>
<path fill="#F26E65" d="M88.1,1033.4l39.2-18.6c0,0,13.3,20.9,1,46.1c0,0-10.3,23.8-40.1,27.2L88.1,1033.4z"/>
<path fill="#F26E65" d="M79.8,1033.4l-39.2-18.6c0,0-13.3,20.9-1,46.1c0,0,10.3,23.8,40.1,27.2L79.8,1033.4L79.8,1033.4z"/>
<path fill="#FFFFFF" d="M84.2,1026.5l38.5-18.2c0,0-13-18.2-38.5-18.6c0,0-22.9-1-38.5,18.2L84.2,1026.5z"/>
<path fill="#FFFFFF" d="M95.4,992.3c0,0,6-16.9,15.2-23.2c0,0,7.3-4.7,3-7.3c0,0-3.6-3-8,3.6c0,0-10,16.3-13.3,26.5
	C89.1,1002.2,95.4,992.3,95.4,992.3z"/>
<path fill="#FFFFFF" d="M71.5,992.3c0,0-6-16.9-15.2-23.2c0,0-7.3-4.7-3-7.3c0,0,3.6-3,8,3.6c0,0,10,16.3,13.3,26.5
	C77.8,1002.2,71.5,992.3,71.5,992.3z"/>
<circle fill="#2C3141" cx="62.9" cy="1069.6" r="3.3"/>
<circle fill="#2C3141" cx="62.9" cy="1038.4" r="3.3"/>
<circle fill="#2C3141" cx="53.9" cy="1053.3" r="5.6"/>
<circle fill="#2C3141" cx="67.9" cy="1053.3" r="1.7"/>
<circle fill="#2C3141" cx="105" cy="1038.4" r="3.3"/>
<circle fill="#2C3141" cx="105" cy="1069.6" r="3.3"/>
<circle fill="#2C3141" cx="114.3" cy="1054.7" r="5.6"/>
<circle fill="#2C3141" cx="100" cy="1054.7" r="1.7"/>
<path fill="#9AD4E9" d="M77.5,982.3c0,0-4.4-10.6-6.9-13.9c0,0,13.3-2.3,26.5-0.3c0,0-5.3,8.6-6.9,14.3
	C90.1,982,83.4,981.3,77.5,982.3z"/>
<path fill="#9AD4E9" d="M84.2,1126.6c0,0-49.5-9.6-69-66c0,0-22.6-63.3,38.2-87.9c0,0,6,6.6,8.6,13.6c0,0-17.9,6.3-27.9,25.5
	c0,0-6,9.6-6.6,24.6c0,0-1.3,17.6,8.6,33.2c0,0,10.6,18.6,32.6,24.6c0,0,6.3,2,15.6,2l0,0c9.3,0,15.6-2,15.6-2
	c21.9-5.6,32.6-24.6,32.6-24.6c10-15.6,8.6-33.2,8.6-33.2c-0.6-14.6-6.6-24.6-6.6-24.6c-9.8-19.2-27.8-25.5-27.8-25.5
	c3-7.3,8.6-13.6,8.6-13.6c60.8,24.6,38.2,87.9,38.2,87.9C133.5,1116.7,84.2,1126.6,84.2,1126.6L84.2,1126.6z"/>
<path fill="#FFFFFF" d="M217.5,1065.2"/>
<path fill="#FFFFFF" d="M185.4,1042.9c0,0,2-20.9,1.3-25.9c0,0-0.6-8.6-6.3-12.6c0,0-1.7-1.3,0-3.3c0,0,0.3-0.6,1.3-0.6l19.9-2
	c0,0,2,0,2.3,1.7c0,0,1,6.6,0.6,15.2c0,0-0.6,12.6-3,33.5l-1,10.6c0,0-0.6,4.7,1.7,5.3c0,0,3.3,1.7,6.9-1.7c0,0,19.6-14.9,19.9-47.1
	c0,0-1.3-15.6,4.4-16.9c0,0,8.9-2,6.6,16.9c0,0-2,16.3-9.6,30.2c0,0-20.9,36.2-36.2,33.2c0,0-10.6-1.3-10.6-12.6
	C184,1067.2,185.1,1045.6,185.4,1042.9z"/>
<path fill="#FFFFFF" d="M462.1,1023h-12.2c-1.3,0-2,1.3-2,1.3l-8,36.5c-0.6,3-1.7,5.6-1.7,5.6c-2,3.9-7.7,2.7-7.7,2.7
	c-2-0.6-2-3.3-2-3.3c0-1.7,0.3-5,0.3-5l7.7-35.5c0.6-2.3-2-2.3-2-2.3h-11.9c-1.7,0-2.3,2.3-2.3,2.3l-6,25.5c-1.7,6.6-6,12.2-6,12.2
	c-5.6,7.7-9.6,5.6-9.6,5.6c-3-1-2-6-2-6c0.3-3.6,2.3-11.6,2.3-11.6l5.3-25.5c0.6-2.7-2-2.3-2-2.3c-5.6-0.3-14.6,1.7-14.6,1.7
	c-1,0.3-1.7,0-1.7,0c-1.7-1.3-4.4-2-4.4-2c-23.5-3.3-31.8,27.2-31.8,27.2c-7.7,19.9-23.5,18.9-23.5,18.9c-6.6-0.3-6.9-6.9-6.9-6.9
	c-2.3-19.3,7.7-31.2,7.7-31.2c3.3-4.7,6.6-3.3,6.6-3.3c3,1.3,1.7,5.3,1.7,5.3c-0.3,1.7-1.3,4.4-1.3,4.4c-0.3,1.7,1,2.3,1,2.3
	c4.4,2,6.9-2,6.9-2c3.6-6-0.3-11.3-0.3-11.3c-3.6-6.3-14.9-4.4-14.9-4.4c-21.9,3.3-25.2,31.8-25.2,31.8c-4.4,16.9-16,14.6-16,14.6
	c-3.9-1.3-2.7-6-2.7-6l7.7-37.1c0.3-2.3-2-2.3-2-2.3c-8,0-14.3,1.7-14.3,1.7c-1.3,0.6-2.3-0.3-2.3-0.3c-1-0.6-2-1-2-1
	c-6.3-2.3-13.9,0.6-13.9,0.6c-14.3,6-18.9,26.9-18.9,26.9c-3.6,17.9,3,23.8,3,23.8c12.6,11,25.2-2.3,25.2-2.3c2-2,3.3,0.3,3.3,0.3
	c1.3,3,3.6,4.7,3.6,4.7c9.3,6.6,28.5-6.6,28.5-6.6c1.7-1.3,2.7,0.6,2.7,0.6c3.3,5.3,8,6.6,8,6.6c16.6,5.3,34.5-10,34.5-10
	c3-1.7,3.9,1.3,3.9,1.3c2,5.3,7.3,8,7.3,8c13.3,6.3,22.2-5.3,22.2-5.3c2.3-2.3,3.3,0.6,3.3,0.6c2.7,5.3,6.6,6,6.6,6
	c10,2.3,20.2-7.3,20.2-7.3c3.3-2.7,4.7,1,4.7,1c2.3,5.3,6.6,6,6.6,6c4.7,1.3,17.2-3.3,17.2-3.3c-1.7,2.3-12.2,6.3-12.2,6.3
	c-8,3.3-8,11.6-8,11.6c-0.3,12.2,11.3,10.6,11.3,10.6c3.6-0.3,7.3,0.3,7.3,0.3c11.3,1,14.3-15.6,14.3-15.6l3.9-18.9l9.3-44.5
	C464.4,1023,462.1,1023,462.1,1023z M272.3,1034.6c-1.7,8.9-3.3,14.9-5.3,23.8c0,0-0.3,1.3-0.6,3c-1.3,5.6-6.3,8-9.6,7.3
	c-3-0.6-4.7-4.4-3.9-10.3c0.6-8.6,2.7-16.9,8-23.8c1.3-2,3-3.3,5-4.4C268.9,1029,273,1031,272.3,1034.6z M386.1,1034.9
	c-1.7,8.6-3.6,16.9-5.6,25.5c-0.3,1.3-1,2.7-1.7,3.9c-2,3-5,5-8.9,4.7c-5.3-0.3-4.7-8.6-4.7-8.6c0.6-9.3,3.3-17.9,8.9-25.5
	c1.3-2,3.3-3.6,5.6-4.7C383.4,1028.3,386.7,1031,386.1,1034.9z M435.1,1085.4c-1,3-1.7,6-3,8.6c-1.3,2.7-4.7,7.3-7.7,5.3
	c-3-2-3.3-6.3-2-8.6c2-3,6.6-6,10.3-7.3C434.5,1082.4,435.5,1083.7,435.1,1085.4z"/>
<path fill="#FFFFFF" d="M508.8,1039c-1.7-0.6-1.7-2-1.7-2c0-2,1.3-2.7,1.3-2.7c1.3-0.6,3.9-2.7,3.9-2.7c10.3-7.3,7.3-20.2,7.3-20.2
	c-2.7-10.3-16.3-11.9-16.3-11.9c-13-2-33.2,2-33.2,2c-1.7,0.3-2,1.7-2,1.7c-0.6,2,1,3.3,1,3.3c5,4.7,3.3,11.3,3.3,11.3l-2.3,11.9
	l-8.3,40.4c-1.3,6,0.3,6.9,0.3,6.9c2.7,1.3,18.6,2.3,18.6,2.3c13.6,1.3,21.6-1,21.6-1c20.5-6.3,16.9-25.9,16.9-25.9
	C517.8,1042.3,508.8,1039,508.8,1039z M488.6,1072.1c-0.6,0-1.7,0-2.3,0c-7.3-0.3-7.7-1.3-6.3-8.3c1.3-6.6,3-13.6,4.4-20.2
	c0.3-2,1-2.7,3-3c8.9-1.7,14.6,3.3,14.6,13.6C501.9,1064.2,496.9,1071.1,488.6,1072.1z M500.5,1026.3c-2.3,3.9-5.6,6.3-10.3,6.6
	c-1.7,0-3-1.3-2.7-3c1.3-6.9,2.7-13.9,3.9-20.9c0.6-3,6-3.9,8.9-1.7c0.3,0.3,1,1,1.3,1.3C504.5,1014.1,503.6,1020.7,500.5,1026.3z"
	/>
<path fill="#FFFFFF" d="M637.9,1023c-6.6,0.3-13.3,1.7-13.3,1.7c-1,0.3-1.7-0.3-1.7-0.3c-3-2.7-8-2-8-2c-24.9,1-27.9,33.2-27.9,33.2
	c-2.3,13.6-14.6,13.3-14.6,13.3c-3.9-0.3-3-6.3-3-6.3l7.7-37.1c0.3-2-1.7-2-1.7-2h-11.6c-2.7,0-3,3-3,3l-3.3,16
	c-1,4.7-4.4,18.2-4.4,18.2c-1,3.3-3.6,6-3.6,6c-2.7,2.7-6,1.7-6,1.7c-2-0.6-1.7-4.4-1.7-4.4c0-1.7,1.3-8,1.3-8l6.3-30.9
	c0.3-2-1.7-2-1.7-2h-11.3c-1.7,0-2.3,0.3-2.3,0.3c-1,0.6-1.3,2.7-1.3,2.7l-6.9,37.8c-0.6,3.3-0.3,6.9-0.3,6.9
	c0.6,6.3,8.6,8.3,8.6,8.3c10.6,2.7,17.2-6.6,17.2-6.6c2-2.3,3,0.3,3,0.3c2,4.7,6.9,6,6.9,6c10.3,3,21.3-5.3,21.3-5.3
	c4.7-3.3,6.6-0.3,6.6-0.3c9.3,13.6,25.5,2.3,25.5,2.3c-1,2.7-6.3,4.7-6.3,4.7c-6,2.3-8.3,3.6-8.3,3.6c-8.6,6-4.7,15.2-4.7,15.2
	c2.7,7.3,8.3,5.6,8.3,5.6c5-0.6,8,0,8,0c12.6,2.3,16-14.3,16-14.3l1.7-6.6l11.9-58.7C641.5,1022.7,637.9,1023,637.9,1023z
	 M612.3,1085.1c-1,3-1.7,6-3,8.6c-1.3,2.6-4.7,7.3-7.7,5.3c-3-2-3.3-6.3-2-8.6c2-3,6.6-6,10.3-7.3
	C611.7,1082.1,613,1083.4,612.3,1085.1z M622,1039.6c-1.3,6.9-3,13.6-4.4,20.5c-0.3,1.3-1,2.3-1.7,3.6c-2.3,3.6-6,5.6-8.9,4.7
	c-3.9-1.3-3.9-5-3.9-6.3v-1.7c0.6-9.6,2.7-17.9,8-25.5l0,0C615,1029.3,623.3,1032.9,622,1039.6z"/>
<path fill="#BBBCBC" d="M680.9,1065.6c-1.5,0.9-3,1.7-4.6,2.1c-1.6,0.4-3.5,0.6-5.9,0.6H658l7.8-33.8h9.7c2.5,0,4.3,0.1,5.5,0.2
	c1.2,0.2,2.3,0.5,3.3,1.1c0.8,0.5,1.5,1.1,1.9,2c0.4,0.8,0.6,1.7,0.6,2.6c0,2-0.5,3.6-1.7,5.2c-1.1,1.5-2.6,2.7-4.6,3.4v0.2
	c1.8,0.4,3.2,1.1,4.1,2.3c0.9,1.1,1.5,2.6,1.5,4.4c0,2-0.5,3.7-1.5,5.5C683.7,1063.1,682.5,1064.5,680.9,1065.6z M681.3,1056.2
	c0-0.8-0.1-1.6-0.4-2.1c-0.3-0.5-0.8-1-1.6-1.5c-0.6-0.4-1.3-0.6-2.3-0.7c-0.9-0.1-2.3-0.2-3.9-0.2h-6.8l-2.9,12.8h6.2
	c2,0,3.6-0.1,4.9-0.3s2.4-0.6,3.3-1.1c1.1-0.7,2.1-1.7,2.7-2.9S681.3,1057.6,681.3,1056.2z M681.8,1041.8c0-0.6-0.1-1.1-0.3-1.6
	s-0.5-0.7-0.9-1c-0.6-0.4-1.5-0.7-2.4-0.8c-0.9-0.1-2.2-0.2-3.7-0.2h-5.1l-2.3,10h5.9c1.3,0,2.4-0.1,3.4-0.3
	c0.9-0.2,1.8-0.5,2.5-0.9c0.9-0.5,1.7-1.3,2.2-2.3C681.6,1043.7,681.8,1042.7,681.8,1041.8z"/>
<path fill="#BBBCBC" d="M701.4,1068.9c-3.5,0-6.2-0.8-8.3-2.5c-2.1-1.7-3-4-3-7.3c0-4.7,1.5-8.6,4.4-11.9c2.9-3.3,6.5-5,10.9-5
	c2.9,0,5.1,0.7,6.6,2.2c1.6,1.5,2.3,3.4,2.3,6c0,0.4-0.1,1.1-0.2,2.2c-0.1,1-0.3,2.1-0.6,3.4h-18.7c-0.1,0.4-0.1,0.8-0.2,1.2
	c0,0.4-0.1,0.8-0.1,1.1c0,2.2,0.6,3.8,2,5c1.3,1.2,3.1,1.9,5.5,1.9c1.7,0,3.4-0.3,5.2-0.9c1.8-0.6,3.2-1.3,4.5-2.2h0.2l-0.9,4.6
	c-0.7,0.3-1.5,0.5-2.1,0.7c-0.6,0.2-1.3,0.4-2.3,0.7c-0.9,0.3-1.8,0.4-2.5,0.5C703.4,1068.8,702.6,1068.9,701.4,1068.9z
	 M709.9,1052.8c0.1-0.4,0.1-0.8,0.2-1.1c0-0.3,0-0.6,0-1c0-1.7-0.4-2.9-1.3-3.8s-2.3-1.3-4.3-1.3c-2.2,0-4,0.6-5.7,2
	c-1.7,1.3-2.8,3.1-3.4,5.3L709.9,1052.8L709.9,1052.8z"/>
<path fill="#BBBCBC" d="M736.2,1043l-0.7,3.4h-8.8l-2.7,11.7c-0.1,0.6-0.3,1.2-0.4,2.1c-0.1,0.7-0.2,1.3-0.2,1.9
	c0,1.1,0.3,2,0.8,2.5c0.5,0.5,1.6,0.8,3.1,0.8c0.6,0,1.3-0.1,2.2-0.3s1.5-0.4,1.8-0.5h0.2l-0.8,3.6c-0.8,0.2-1.8,0.4-2.7,0.5
	c-0.9,0.1-1.8,0.2-2.6,0.2c-2.1,0-3.7-0.4-4.9-1.3c-1.1-0.9-1.8-2.4-1.8-4.4c0-0.5,0-0.9,0.1-1.5c0.1-0.5,0.2-1,0.3-1.7l3.1-13.6
	h-2.9l0.7-3.4h2.9l1.7-7.3h4.3l-1.7,7.3h9V1043z"/>
<path fill="#BBBCBC" d="M751.5,1065.6c-0.4,0.2-0.9,0.6-1.7,1c-0.7,0.4-1.5,0.8-2.2,1.1c-0.7,0.3-1.7,0.6-2.6,0.8
	c-0.9,0.2-2.1,0.3-3.3,0.3c-2,0-3.6-0.6-4.9-1.8s-1.9-2.7-1.9-4.6c0-2,0.4-3.7,1.3-5.1c0.9-1.3,2.2-2.5,3.9-3.4
	c1.7-0.8,3.7-1.5,6.2-1.9s5.2-0.6,8.3-0.7c0.1-0.4,0.2-0.8,0.2-1.1c0.1-0.3,0.1-0.6,0.1-0.9c0-0.7-0.1-1.3-0.4-1.8
	c-0.3-0.4-0.7-0.8-1.2-1.1c-0.5-0.3-1.1-0.4-1.9-0.5s-1.5-0.1-2.3-0.1c-1.2,0-2.8,0.2-4.4,0.6c-1.7,0.4-3,0.8-4,1.2h-0.2l0.8-4.3
	c0.8-0.2,2.1-0.5,3.8-0.7c1.7-0.3,3.2-0.4,4.8-0.4c3.1,0,5.5,0.5,7.1,1.5c1.6,0.9,2.4,2.6,2.4,4.7c0,0.4,0,0.8-0.1,1.3
	c-0.1,0.4-0.1,0.9-0.2,1.3l-3.9,17.2h-4.3L751.5,1065.6z M754,1054.9c-2.3,0.1-4.4,0.3-6.2,0.5c-1.9,0.2-3.3,0.6-4.5,1.1
	c-1.2,0.5-2.2,1.1-2.8,2.1c-0.6,0.8-0.9,1.9-0.9,3.2c0,1,0.4,2,1.1,2.5c0.7,0.6,1.9,0.8,3.4,0.8c1.3,0,2.8-0.3,4.3-0.9
	c1.5-0.6,2.8-1.3,4-2.2L754,1054.9z"/>
</svg>
