<?xml version="1.0" encoding="utf-8"?>
<!-- Generator: Adobe Illustrator 18.1.1, SVG Export Plug-In . SVG Version: 6.00 Build 0)  -->
<!DOCTYPE svg PUBLIC "-//W3C//DTD SVG 1.1//EN" "http://www.w3.org/Graphics/SVG/1.1/DTD/svg11.dtd">
<svg version="1.1" id="Layer_1" xmlns="http://www.w3.org/2000/svg" xmlns:xlink="http://www.w3.org/1999/xlink" x="0px" y="0px"
	 viewBox="0 0 200 60" enable-background="new 0 0 200 60" xml:space="preserve">
<path fill="#F26E65" d="M26.5,26.4l11.8-5.6c0,0,4,6.3,0.3,13.9c0,0-3.1,7.2-12.1,8.2L26.5,26.4z"/>
<path fill="#F26E65" d="M24,26.4l-11.8-5.6c0,0-4,6.3-0.3,13.9c0,0,3.1,7.2,12.1,8.2L24,26.4z"/>
<path fill="#FFFFFF" d="M25.3,24.3l11.6-5.5c0,0-3.9-5.5-11.6-5.6c0,0-6.9-0.3-11.6,5.5L25.3,24.3z"/>
<path fill="#FFFFFF" d="M28.7,14c0,0,1.8-5.1,4.6-7c0,0,2.2-1.4,0.9-2.2c0,0-1.1-0.9-2.4,1.1c0,0-3,4.9-4,8S28.7,14,28.7,14z"/>
<path fill="#FFFFFF" d="M21.5,14c0,0-1.8-5.1-4.6-7c0,0-2.2-1.4-0.9-2.2c0,0,1.1-0.9,2.4,1.1c0,0,3,4.9,4,8S21.5,14,21.5,14z"/>
<circle fill="#FFFFFF" cx="18.9" cy="37.3" r="1"/>
<circle fill="#FFFFFF" cx="18.9" cy="27.9" r="1"/>
<circle fill="#FFFFFF" cx="16.2" cy="32.4" r="1.7"/>
<circle fill="#FFFFFF" cx="20.4" cy="32.4" r="0.5"/>
<circle fill="#FFFFFF" cx="31.6" cy="27.9" r="1"/>
<circle fill="#FFFFFF" cx="31.6" cy="37.3" r="1"/>
<circle fill="#FFFFFF" cx="34.4" cy="32.8" r="1.7"/>
<circle fill="#FFFFFF" cx="30.1" cy="32.8" r="0.5"/>
<path fill="#9AD4E9" d="M23.3,11c0,0-1.3-3.2-2.1-4.2c0,0,4-0.7,8-0.1c0,0-1.6,2.6-2.1,4.3C27.1,10.9,25.1,10.7,23.3,11z"/>
<path fill="#9AD4E9" d="M25.3,54.5c0,0-14.9-2.9-20.8-19.9c0,0-6.8-19.1,11.5-26.5c0,0,1.8,2,2.6,4.1c0,0-5.4,1.9-8.4,7.7
	c0,0-1.8,2.9-2,7.4c0,0-0.4,5.3,2.6,10c0,0,3.2,5.6,9.8,7.4c0,0,1.9,0.6,4.7,0.6h0c2.8,0,4.7-0.6,4.7-0.6c6.6-1.7,9.8-7.4,9.8-7.4
	c3-4.7,2.6-10,2.6-10c-0.2-4.4-2-7.4-2-7.4c-3-5.8-8.4-7.7-8.4-7.7c0.9-2.2,2.6-4.1,2.6-4.1c18.3,7.4,11.5,26.5,11.5,26.5
	C40.2,51.5,25.3,54.5,25.3,54.5C25.3,54.5,25.3,54.5,25.3,54.5z"/>
<path fill="#FFFFFF" d="M77.2,30.8"/>
<path fill="#FFFFFF" d="M72.3,21.3c-0.1-0.1-1.5-2-2.6-1.1c-1.2,0.9-0.3,5-0.3,5c0.1,0.9-0.2,3.4-0.3,3.7c-1,4.3-2.6,8-5.9,11
	c-0.7,0.7-1.9,0.7-2.2,0.5c-0.4-0.3-0.5-1.1-0.5-1.7c0.2-3.1,0.6-6.1,0.9-9.2c0.3-3,0.6-5.9,0.1-9.1c-0.1-0.3-0.4-0.6-0.7-0.6
	c-1.9,0.2-4.1,0.4-6.2,0.6c-0.6,0.1-0.8,0.8-0.4,1.2c0.4,0.3,0.7,0.7,0.9,1c0.9,1.3,1.1,2.8,1.1,4.3c0,1.6-0.2,3.2-0.3,4.8
	c-0.2,3.1-0.5,6.2-0.6,9.3c-0.1,2.7,2,4.4,4.6,3.8c1.1-0.2,2.2-0.8,3-1.5c5.8-5.2,9.2-11.6,10-19.3C72.8,24,73,22.3,72.3,21.3z"/>
<path fill="#FFFFFF" d="M92,38.1l-0.9,1.6l-2.7,1.9c-0.5,0.3-1.5,0.2-1.9-0.1c-0.4-0.2-0.9-0.8-0.7-1.8c0.3-1.6,0.6-3.1,1-4.7
	c0.5-2.2,0.9-4.5,1.4-6.8c0.1-0.4-0.2-0.8-0.6-0.7c-0.9,0-1.6,0.1-2.6,0.2c-0.4,0-1.3,0.2-1.9,0.4c-0.2,0.1-0.3,0-0.5-0.1
	c-0.4-0.2-0.7-0.5-1.4-0.6c-1.8-0.3-3.6,0.1-5.1,1.3c-3.5,2.6-5.7,9.1-4.5,13.2c0.7,2.3,2.7,3.5,5.1,3.2c1.5-0.2,2.7-1,3.7-2.1
	c0,0,0,0,0,0c0.3-0.3,0.8-0.2,1,0.1c0.9,1.7,2,2.2,3.9,2c1.5-0.2,3.8-1.1,6.1-2.6 M82.6,31c-0.5,2.7-1,4.6-1.6,7.4
	c0,0-0.1,0.4-0.2,0.9c-0.4,1.8-1.9,2.5-3,2.2c-1-0.2-1.4-1.3-1.3-3.1c0.2-2.7,0.8-5.2,2.4-7.4c0.5-0.6,0.9-1.1,1.6-1.3
	C81.5,29.3,82.8,29.9,82.6,31z"/>
<path fill="#FFFFFF" d="M104.6,39c-1.5,1.6-2.9,2.8-5.2,2.6c-1.3-0.1-2-0.8-2.2-2.2c-0.3-3.8,0.2-6.6,2.4-9.6
	c0.1-0.1,0.3-0.5,0.5-0.6c0.6-0.5,1.2-0.6,1.6-0.4c0.8,0.4,0.6,1.2,0.5,1.7c-0.1,0.6-0.2,0.9-0.4,1.4c-0.1,0.3,0.1,0.6,0.4,0.8
	c0.9,0.4,1.7,0.2,2.1-0.6c1.2-1.8,0.1-4.4-2-4.8c-3.3-0.6-5.9,0.5-7.9,3.1c-1.9,2.5-2.6,5.1-2.9,8.4c0,0.4-2.5,3-3.7,2.9
	c-0.9-0.1-0.9,2.4-0.9,2.9c2.3-1,4.3-2,4.5-2.1c0.5-0.3,0.7,0,0.9,0.3c1.4,2,3.1,2.5,6,2.2c2.3-0.3,4.9-1.7,6.7-3.1
	c1.8-1.4,2.1,0.4,2.1,0.4l0.3-1.2l0.3,1.1l0.4-7.5l-0.6-0.9C107.4,33.6,106.6,36.9,104.6,39z"/>
<path fill="#FFFFFF" d="M127.2,34c-1,5.2-3.9,8.2-5.4,7.6c-0.5-0.2-0.8-0.8-0.6-1.9c0.1-1.2,0.5-2.4,0.7-3.6
	c0.5-2.6,1.1-5.2,1.7-7.9c0.1-0.4-0.2-0.8-0.6-0.7c-1.1,0-2,0.1-3,0.2c-0.5,0-1,0.2-1.6,0.3c-0.2,0.1-0.3,0-0.5,0
	c-0.3-0.2-0.8-0.5-1.4-0.6c-1.9-0.3-3.6,0.1-5.1,1.3c-3.2,2.4-4.7,5.9-5.3,9.6c0,0.3-0.2,0.8-0.4,1.2c0,0.8-0.7,1.6-0.7,2.3
	c1.1-0.7,1.4,0,1.5,0.3c0.7,1.9,2.5,2.9,4.6,3c1.9,0.1,3.4-0.8,4.6-2.2c0.3-0.3,0.8-0.2,1,0.2c0.8,1.7,1.9,2.2,3.8,2
	c1.3-0.1,2.9-1,4.1-2.1c0.6-0.6,1.5-0.9,2,0.5L127.2,34z M117.9,31c-0.5,2.7-1.1,5.3-1.7,7.9c-0.1,0.4-0.3,0.9-0.5,1.2
	c-0.6,0.9-1.5,1.5-2.7,1.4c-1.7-0.1-1.5-2.7-1.5-2.7c0.2-2.9,1-5.5,2.8-7.9c0.4-0.6,1.1-1.1,1.7-1.4C117.1,29,118.1,29.8,117.9,31z"
	/>
<path fill="#FFFFFF" d="M141.5,27.4h-3.8c-0.3,0-0.5,0.2-0.6,0.5c-0.7,3.3-1.2,6.7-2.1,9.9c-0.4,1.4-0.2,1.3-1,3
	c-0.4,1-1.8,0.9-2.3,0.8c-0.3-0.1-0.6-0.6-0.7-1c0-0.3,0.1-1.2,0.2-1.5c0.4-2,0.9-4,1.3-6c0.3-1.6,0.7-3.3,1-5
	c0.1-0.4-0.2-0.7-0.6-0.7c-1.3,0-2.5,0-3.7,0c-0.2,0-0.6,0.4-0.7,0.7c-0.7,3-1.5,6.6-2,9c0,0.1-0.2,1.2-0.2,1.3
	c-0.3,2.1-0.3,2.1-0.2,3.7c0.5,1.8,1.6,2.8,3.3,2.7c1.5-0.1,2.9-0.7,4.4-1.1c-0.3,0.2-0.8,0.6-1.2,0.8c-1,0.5-1.7,0.7-2.7,1.2
	c-1.4,0.7-2.2,1.9-2.3,3.5c-0.2,2,1.1,3.4,3,3.4c0.8,0,1.6-0.1,2.4,0c1.9,0.3,3.1-0.7,3.9-2.2c0.5-0.8,0.8-1.7,1-2.7
	c1-4.4,1.9-8.9,2.8-13.3c0.4-2.1,0.9-4.2,1.3-6.3C142.2,27.8,141.9,27.4,141.5,27.4z M133.1,46.7c-0.3,1-0.5,1.9-0.9,2.7
	c-0.4,0.8-1.4,2.2-2.4,1.6c-0.9-0.6-1.1-1.9-0.6-2.7c0.6-1,2.1-1.9,3.2-2.3C132.9,45.9,133.3,46.3,133.1,46.7z"/>
<g>
	<g>
		<path fill="#FFFFFF" d="M141.5,44.2c-0.4-0.3-0.3-1.2,0-2.7c0.8-4.3,1.3-6,2.1-10.1c0.4-1.9,0.7-3.8,1.1-5.6c0.2-1.3,0-2.4-1-3.4
			c-0.1-0.1-0.2-0.2-0.2-0.3c-0.3-0.5-0.1-1.2,0.5-1.3c3.7-0.6,6.7-1,10.3-0.6c2.3,0.2,4.7,1.8,5.1,3.7c0.4,2.5-0.1,4.7-2.2,6.3
			c-0.4,0.3-0.8,0.5-1.3,0.8c-0.6,0.3-0.5,1.2,0.1,1.4c1.4,0.7,2.6,1.7,3,3.4c1.1,3.9-1.1,7.9-5.1,8.8c-1.7,0.4-2.6,0.5-5.4,0.4
			C148.5,44.9,142,44.5,141.5,44.2z M153.8,37c0-3.2-1.7-4.7-4.5-4.2c-0.6,0.1-0.9,0.4-1,1c-0.4,2.1-0.9,4.2-1.3,6.3
			c-0.5,2.2-0.3,2.4,1.9,2.6c0.2,0,0.5,0,0.7,0C152.3,42.3,153.8,40.2,153.8,37z M149.4,29.5c-0.1,0.5,0.3,1,0.8,1
			c1.4-0.1,2.5-0.8,3.2-2.1c0.9-1.7,1.2-3.5,0.3-5.4c-0.1-0.2-0.2-0.3-0.4-0.4c-0.9-0.7-2.6-0.4-2.8,0.5
			C150.2,25.2,149.8,27.3,149.4,29.5z"/>
	</g>
</g>
<path fill="#FFFFFF" d="M196.1,27.4c-1.5,0-1.7,0.1-2.8,0.2c-0.4,0-0.8,0.1-1.3,0.3c-0.2,0.1-0.4,0-0.5-0.1c-1-0.9-2.4-0.7-3.8-0.4
	c-2.8,0.6-4.5,2.5-5.8,5c-1.1,2.2-1.7,4.5-1.7,6.9c0,0.4-0.1,0.8-0.3,1.1c0.1,0.8,0.5,1.5,0.9,2.3c0.1,0,0.1,0.1,0.2,0.2
	c0.7,1.2,1.8,1.9,3.3,2c1.7,0.2,3.1-0.5,4.6-1.3c-0.3,0.7-0.6,0.8-1,1c-1.1,0.6-2.4,0.9-3.5,1.6c-1.6,0.9-2.2,3.1-1.5,4.8
	c0.5,1.1,1.1,1.9,2.6,1.7c0.8-0.1,1.6-0.1,2.4,0c2.3,0.4,3.6-1,4.4-3c0.3-0.6,0.5-1.3,0.6-2c0.9-4,1.7-8.1,2.6-12.1
	c0.5-2.5,0.9-5,1.5-7.6C197.1,27.6,196.8,27.4,196.1,27.4z M188.2,46.6c-0.3,1-0.5,1.9-0.9,2.7c-0.4,0.8-1.4,2.2-2.4,1.6
	c-0.9-0.6-1.1-1.9-0.6-2.7c0.6-1,2.1-1.9,3.2-2.3C187.9,45.8,188.3,46.2,188.2,46.6z M191.1,32.5c-0.4,2.1-0.9,4.2-1.4,6.4
	c-0.1,0.4-0.3,0.8-0.5,1.1c-0.7,1.1-1.9,1.8-2.8,1.4c-1.2-0.5-1.2-1.5-1.2-2c0,0,0-0.5,0-0.5c0.2-3,0.8-5.6,2.4-7.9c0,0,0,0,0,0
	C189,29.3,191.5,30.5,191.1,32.5z"/>
<path fill="#FFFFFF" d="M175.7,41.5c-1-0.1-1.2-0.8-0.9-2.4c0.8-3.6,1.5-7.3,2.3-11c0.1-0.3-0.2-0.7-0.5-0.7c-1.3,0-2.2,0-3.6,0
	c-0.7,0-0.9,0.6-0.9,0.9c-0.7,3.2-1.2,6.4-2,9.5c-0.4,1.5-0.7,2.4-1.6,3.1c-0.6,0.5-1.2,0.5-1.7,0.4c-0.6-0.2-0.6-1-0.5-1.4
	c0.2-1.5,0.5-3.1,0.8-4.6c0.5-2.4,1-4.8,1.5-7.4c0.1-0.3-0.2-0.7-0.5-0.7c-1.3,0-2.4,0-3.5,0c-0.7,0-0.9,0.2-1.1,0.9
	c-0.4,2.2-1,4.3-1.3,6.4c-0.4,2.2-0.8,4.4-1,6.6c-0.1,1.9,1,3.1,2.8,3.4c2.1,0.4,3.8-0.4,5.1-2c0-0.1,0.1-0.1,0.1-0.2
	c0.3-0.3,0.8-0.2,0.9,0.1c1.1,2.7,5.4,2.7,8.7,0.1c0.2-0.2,2.1-2.9,2.3-2.8c-0.4-0.8-1.5-0.4-1.5-1.2
	C178.8,41.3,176.5,41.7,175.7,41.5z"/>
<path fill="#FFFFFF" d="M88.6,42.5l2.4-1.1l1.8,0.6l1-6.4l-0.9-1.2c-0.2-0.2-1.1,1.5-1.1,1.8c-0.2,2.2-2.2,5.9-5.1,5.3"/>
<path fill="#FFFFFF" d="M180.3,37.3c0,0-0.6,3.7-4.8,4.2l-0.1,1.9l-0.9,1.4c0,0,2.9-0.7,4.4-1.8c0,0,1.4-1.2,2.2,0.2l2.3,0.6l-1-5.5
	L180.3,37.3z"/>
</svg>
